<?xml version="1.0" standalone="no"?>
<!DOCTYPE svg PUBLIC "-//W3C//DTD SVG 20010904//EN"
 "http://www.w3.org/TR/2001/REC-SVG-20010904/DTD/svg10.dtd">
<svg version="1.0" xmlns="http://www.w3.org/2000/svg"
 width="250.000000pt" height="250.000000pt" viewBox="0 0 250.000000 250.000000"
 preserveAspectRatio="xMidYMid meet">

<g transform="translate(0.000000,250.000000) scale(0.100000,-0.100000)"
fill="#000000" stroke="none">
<path d="M1350 2350 l0 -50 -47 0 -48 0 0 -47 0 -48 -47 -3 -48 -3 0 -380 0
-379 -50 0 -50 0 0 -50 0 -50 -94 0 -95 0 -3 -47 -3 -48 -92 -3 -93 -3 0 -44
0 -45 -50 0 -50 0 0 -50 0 -50 -95 0 -95 0 0 50 0 50 -50 0 -50 0 0 48 0 47
-45 -3 -44 -4 -3 99 -3 98 -45 0 -45 0 -3 -282 -2 -282 47 -3 48 -3 3 -47 3
-48 50 0 49 0 0 -50 0 -50 45 0 45 0 0 -45 0 -45 50 0 50 0 0 -50 0 -50 45 0
45 0 0 -190 0 -190 95 0 95 0 0 45 0 45 -45 0 -45 0 0 50 0 50 44 0 45 0 3 48
3 47 48 3 47 3 0 45 0 44 50 0 50 0 0 -45 0 -45 45 0 45 0 0 -50 0 -50 50 0
50 0 0 -95 0 -95 95 0 95 0 0 45 0 45 -50 0 -50 0 0 145 0 145 50 0 50 0 0 50
0 50 45 0 45 0 0 95 0 95 50 0 50 0 0 50 0 50 45 0 45 0 0 45 0 45 50 0 50 0
2 193 3 192 45 0 45 0 3 -47 3 -48 45 0 44 0 0 95 0 95 -95 0 -95 0 0 50 0 50
240 0 240 0 0 45 0 45 -190 0 -190 0 0 50 0 50 285 0 285 0 0 285 0 285 -44 0
-45 0 -3 48 -3 47 -477 3 -478 2 0 -50z m100 -190 l0 -50 -50 0 -50 0 0 50 0
50 50 0 50 0 0 -50z"/>
</g>
</svg>
